# Blender v2.79 (sub 0) OBJ File: 'ruderclub-allemannia_mit-steg.blend'
# www.blender.org
mtllib ruderclub-allemannia_mit-steg.mtl
o 1._floor_Cube
v -0.000006 0.000000 -0.000007
v -24.999996 0.000000 -0.000010
v 0.000000 4.000000 -26.999985
v -0.000014 4.000000 0.000001
v -25.000000 4.000000 -0.000011
v -24.999992 4.000000 -26.999992
v -3.988118 0.000000 -0.000007
v -8.488176 4.000000 -26.999987
v -3.988127 4.000000 0.000000
v -16.065125 0.000000 -0.000009
v -16.065121 4.000000 -26.999990
v -16.065128 4.000000 -0.000009
v -24.999994 0.000000 -7.175089
v -0.000010 4.000000 -7.175078
v -24.999996 4.000000 -7.175089
v -3.988122 4.000000 -7.175079
v -16.065126 4.000000 -7.175086
v -24.999996 4.000000 -15.268194
v -0.000007 4.000000 -15.268185
v -3.988118 4.000000 -15.268186
v -16.065125 4.000000 -15.268191
v -3.988127 3.999994 7.940105
v -3.988118 -0.000006 7.940098
v -16.065125 -0.000006 7.940096
v -16.065128 3.999994 7.940096
v -24.999994 4.000000 -21.311670
v -0.000003 4.000000 -21.311661
v -3.988116 4.000000 -21.311663
v -16.065123 4.000000 -21.311668
v -21.809826 0.000000 -0.000009
v -21.809824 4.000000 -26.999992
v -21.809830 4.000000 -0.000010
v -21.809830 4.000000 -7.175088
v -21.809826 4.000000 -15.268193
v -21.809826 4.000000 -21.311668
v -3.988122 7.454343 -7.175079
v -3.988127 7.454343 0.000000
v -16.065128 7.454343 -0.000008
v -16.065126 7.454343 -7.175086
v -0.000007 7.454343 -15.268185
v -0.000010 7.454343 -7.175078
v -3.988118 7.454343 -15.268185
v -16.065125 7.454343 -15.268190
v -21.809830 7.454343 -7.175087
v -3.988116 7.454343 -21.311661
v -16.065123 7.454343 -21.311666
v -21.809826 7.454343 -15.268192
v -3.988127 7.454336 7.940105
v -16.065128 7.454336 7.940096
v -19.542881 9.538070 -11.221639
v -10.093273 9.538067 3.970049
v -2.910602 9.538070 -11.221632
v -10.093268 9.538070 -11.221636
v -10.093266 9.538070 -18.289927
v -37.629356 0.000000 -21.311672
v -0.000008 0.523810 -0.000005
v -24.999996 0.523810 -0.000010
v -24.999990 0.523810 -26.999998
v -8.488180 0.523810 -26.999992
v -3.988119 0.523810 -0.000005
v -16.065119 0.523810 -26.999996
v -16.065125 0.523810 -0.000009
v -24.999994 0.523810 -7.175089
v -0.000007 0.523810 -7.175084
v -0.000006 0.523810 -15.268190
v -24.999992 0.523810 -15.268195
v -3.988119 0.523803 7.940100
v -16.065125 0.523803 7.940096
v -0.000006 0.523810 -21.311668
v -24.999992 0.523810 -21.311672
v -21.809822 0.523810 -26.999996
v -21.809826 0.523810 -0.000009
v 1.162216 0.000000 -7.175085
v 1.162216 0.000000 -0.000007
v 1.162217 0.523810 -26.999992
v 1.162222 4.000000 -26.999985
v 1.162216 0.523810 -7.175084
v 1.162216 0.000000 -21.311668
v 1.162216 0.000000 -15.268191
v 1.162216 0.523810 -15.268190
v 1.162216 0.000000 -26.999992
v 1.162219 4.000000 -21.311661
v 1.162216 0.523810 -21.311668
v 1.162214 0.523810 -0.000005
v -21.809822 0.000000 -27.982687
v -24.999989 0.000000 -27.982689
v -0.000004 0.523810 -27.982681
v 0.000000 4.000000 -27.982677
v -0.000006 0.000000 -27.982685
v -8.488181 0.000000 -27.982685
v -8.488176 4.000000 -27.982677
v -8.488180 0.523810 -27.982685
v -16.065119 0.000000 -27.982687
v -24.999990 0.523810 -27.982689
v -16.065119 0.523810 -27.982685
v -21.809822 0.523810 -27.982685
v 1.162217 0.523810 -27.982681
v 1.162222 4.000000 -27.982677
v 1.162216 0.000000 -27.982685
v -37.629356 0.000000 -26.999998
v -37.629360 0.000000 -0.000010
v -37.629356 0.000000 -7.175089
v -37.629356 0.523810 -7.175089
v -37.629356 0.523810 -15.268195
v -37.629356 0.000000 -15.268196
v -37.629356 0.523810 -21.311672
v -37.629360 0.523810 -0.000010
v -37.629356 0.523810 -26.999998
v -37.629356 0.000000 -27.982689
v -37.629356 0.523810 -27.982689
vt 0.067391 0.761714
vt 0.017574 0.761714
vt 0.017574 0.682053
vt 0.067391 0.682053
vt 0.512234 -0.000917
vt 0.512233 0.247948
vt -0.001439 0.247948
vt -0.001439 -0.000917
vt 0.995459 0.003300
vt 0.995459 0.245006
vt 0.773640 0.245006
vt 0.773641 0.003300
vt 1.081782 0.003489
vt 1.081782 0.245054
vt 0.686492 0.245054
vt 0.686492 0.003489
vt 0.644304 0.874170
vt 0.644304 0.693614
vt 0.667721 0.693614
vt 0.667721 0.874170
vt 0.515961 0.001504
vt 0.515961 0.246680
vt 0.234678 0.246680
vt 0.234679 0.001504
vt 0.408898 0.935317
vt 0.346117 0.935317
vt 0.346117 0.835364
vt 0.408898 0.835364
vt 0.882246 0.493562
vt 0.882246 0.655430
vt 0.451370 0.655430
vt 0.451370 0.493562
vt 0.910545 0.633847
vt 0.903022 0.633847
vt 0.903021 0.519809
vt 0.910544 0.519809
vt 0.013339 0.003698
vt 0.514185 0.003698
vt 0.514185 0.244823
vt 0.013339 0.244823
vt -0.028552 -0.000860
vt 0.541930 -0.000859
vt 0.541930 0.247329
vt -0.028552 0.247329
vt 0.067391 0.851567
vt 0.017574 0.851567
vt 1.037974 0.260552
vt 1.037974 0.482432
vt 0.579997 0.482432
vt 0.579997 0.260552
vt 0.983791 0.600131
vt 0.947277 0.600131
vt 0.978313 0.576429
vt 0.998587 0.576429
vt 0.509965 0.260168
vt 0.509965 0.482816
vt -0.008396 0.482816
vt -0.008396 0.260168
vt 0.067391 0.918664
vt 0.017574 0.918664
vt 0.470021 0.002607
vt 0.470020 0.244650
vt 0.049221 0.244650
vt 0.049221 0.002607
vt 0.407967 0.918664
vt 0.345689 0.918664
vt 0.345689 0.851567
vt 0.407967 0.851567
vt -0.027241 0.003180
vt 0.529659 0.003180
vt 0.529659 0.245459
vt -0.027241 0.245459
vt 0.916919 0.534401
vt 0.916919 0.487893
vt 0.947277 0.511147
vt 0.916919 0.576429
vt 0.451620 0.493338
vt 0.624538 0.493338
vt 0.624538 0.655987
vt 0.451620 0.655987
vt 0.536080 0.493292
vt 0.797020 0.493292
vt 0.797020 0.655841
vt 0.536080 0.655841
vt 0.534183 -0.000259
vt 0.534183 0.246923
vt -0.030414 0.246922
vt -0.030413 -0.000259
vt 0.275418 0.981818
vt 0.157098 0.981818
vt 0.157098 0.918664
vt 0.407967 0.981818
vt 0.372990 0.847786
vt 0.372990 0.835333
vt 0.400619 0.835333
vt 0.400619 0.847786
vt 0.067391 0.981818
vt 0.017574 0.981818
vt 0.937301 0.259908
vt 0.937301 0.482799
vt 0.549796 0.482799
vt 0.549796 0.259908
vt 0.157098 0.851567
vt 0.452092 0.494110
vt 0.708865 0.494110
vt 0.708865 0.655212
vt 0.452092 0.655212
vt 0.459095 0.905138
vt 0.459095 0.917086
vt 0.171028 0.917086
vt 0.171028 0.905138
vt 1.081920 0.004777
vt 1.081920 0.243550
vt 0.687326 0.243550
vt 0.687326 0.004777
vt 0.157098 0.761714
vt 0.157098 0.682053
vt 0.998587 0.623833
vt 0.978313 0.623833
vt 0.978313 0.659232
vt 0.947277 0.641533
vt 0.887715 0.576429
vt 0.899239 0.600131
vt 0.887715 0.623833
vt 0.916919 0.659232
vt 0.007222 0.001336
vt 0.515176 0.001336
vt 0.515176 0.245883
vt 0.007222 0.245883
vt 0.452383 0.494193
vt 0.623833 0.494193
vt 0.623833 0.655161
vt 0.452383 0.655161
vt 0.536051 0.494153
vt 0.795826 0.494153
vt 0.795826 0.655955
vt 0.536051 0.655955
vt 0.537352 0.493572
vt 0.796087 0.493572
vt 0.796087 0.655319
vt 0.537352 0.655319
vt 0.795597 0.003165
vt 0.795597 0.245130
vt -0.045039 0.245130
vt -0.045039 0.003165
vt 0.543233 0.000979
vt 0.543233 0.247983
vt 0.000510 0.247983
vt 0.000510 0.000979
vt 0.451732 0.492896
vt 0.709178 0.492896
vt 0.709178 0.656529
vt 0.451732 0.656529
vt 0.978313 0.487893
vt 0.978313 0.534401
vt 0.644255 0.993842
vt 0.644255 0.911718
vt 0.667678 0.911718
vt 0.667679 0.993842
vt -0.047229 0.003182
vt 0.798026 0.003182
vt 0.798026 0.244948
vt -0.047229 0.244948
vt 0.450831 0.494142
vt 0.795210 0.494142
vt 0.795210 0.655293
vt 0.450831 0.655293
vt 0.916919 0.623833
vt 0.001022 0.248894
vt 0.001022 0.000204
vt 0.543085 0.000204
vt 0.543085 0.248894
vt 0.426116 0.918664
vt 0.426116 0.981818
vt 0.956919 0.498329
vt 0.963617 0.498329
vt 0.963617 0.652759
vt 0.956919 0.652759
vt 0.444951 0.905182
vt 0.444951 0.917058
vt 0.314704 0.917058
vt 0.314704 0.905182
vt 0.043499 0.247524
vt 0.043499 0.003949
vt 0.446026 0.003949
vt 0.446026 0.247524
vt 0.925560 0.501714
vt 0.935459 0.501714
vt 0.935459 0.651775
vt 0.925559 0.651775
vt 0.175950 0.736144
vt 0.000059 0.736146
vt 0.000059 0.707655
vt 0.175950 0.707653
vt 0.000000 0.000000
vt 0.000000 0.000000
vt 0.000000 0.000000
vt 0.000000 0.000000
vt 0.000067 0.693455
vt 0.171255 0.693455
vt 0.171255 0.994776
vt 0.000067 0.994776
vt -0.023498 0.243666
vt -0.023498 0.004913
vt 0.521848 0.004912
vt 0.521848 0.243665
vt 0.891266 0.497981
vt 0.902099 0.497981
vt 0.902099 0.580462
vt 0.891266 0.580462
vt 0.426116 0.992729
vt 0.407967 0.992729
vt 0.772904 0.245739
vt 0.772903 0.002437
vt 0.996186 0.002437
vt 0.996186 0.245739
vt 0.242375 0.917058
vt 0.242375 0.905182
vt 0.186913 0.494992
vt 0.186913 0.654637
vt 0.127842 0.654637
vt 0.127842 0.494992
vt 0.049242 0.655062
vt 0.049242 0.494760
vt 0.311556 0.494760
vt 0.311556 0.655062
vt 0.362200 0.904900
vt 0.362200 0.917323
vt 0.170267 0.917323
vt 0.170267 0.904900
vt 0.640427 0.904900
vt 0.640427 0.917323
vt 0.505525 0.917323
vt 0.505525 0.904900
vt 0.000106 0.917323
vt 0.000106 0.904900
vt 0.374347 0.736143
vt 0.374346 0.707652
vt 0.522498 0.736142
vt 0.522497 0.707651
vt 0.127537 0.654736
vt 0.127537 0.494681
vt 0.187191 0.494681
vt 0.187191 0.654736
vt 0.532650 0.917083
vt 0.532650 0.905123
vt 0.605492 0.905123
vt 0.605493 0.917083
vt 0.034659 0.917083
vt 0.034659 0.905123
vt 0.228473 0.905123
vt 0.228473 0.917083
vt 0.401479 0.917083
vt 0.401479 0.905123
vt 0.386572 0.494942
vt 0.386572 0.655003
vt 0.003950 0.655003
vt 0.003950 0.494942
vt 0.438962 0.494942
vt 0.438962 0.655003
vt 0.008122 0.917083
vt 0.008122 0.905123
vt 0.275418 0.992729
vt 0.644266 0.910775
vt 0.644266 0.763000
vt 0.667672 0.763000
vt 0.667672 0.910775
vt 0.003926 0.655062
vt 0.003926 0.494760
vt 0.663733 0.904900
vt 0.663732 0.917323
vt 0.026924 0.835695
vt 0.026924 0.847633
vt 0.004528 0.847633
vt 0.004528 0.835695
vt 0.294295 0.835695
vt 0.294295 0.847633
vt 0.156563 0.847633
vt 0.156563 0.835695
vt 0.478740 0.835695
vt 0.478740 0.847633
vt 0.642262 0.835695
vt 0.642262 0.847633
vt 0.508536 0.693455
vt 0.644252 0.693455
vt 0.644252 0.994776
vt 0.508536 0.994776
vt 0.364346 0.693455
vt 0.364346 0.994776
vt 0.667698 0.693455
vt 0.667698 0.994776
vt 0.007055 0.896771
vt 0.007055 0.884810
vt 0.295426 0.884810
vt 0.295426 0.896771
vn 0.0000 1.0000 0.0000
vn 1.0000 0.0000 0.0000
vn -0.0000 0.0000 1.0000
vn -1.0000 -0.0000 -0.0000
vn 0.0000 0.0000 -1.0000
vn -0.0000 0.8891 0.4578
vn -0.3294 0.9442 0.0000
vn 0.5821 0.8131 0.0000
vn 0.0000 0.8891 -0.4578
vn 0.3230 0.9464 0.0000
vn -0.6767 0.7362 -0.0000
vn 0.0000 0.8232 -0.5677
vn -0.0000 0.8854 0.4647
vn 0.0000 -1.0000 0.0000
usemtl Material
s off
f 33/1/1 15/2/1 5/3/1 32/4/1
f 64/5/2 14/6/2 4/7/2 56/8/2
f 72/9/3 32/10/3 5/11/3 57/12/3
f 70/13/4 26/14/4 6/15/4 58/16/4
f 61/17/1 59/18/1 92/19/1 95/20/1
f 56/21/3 4/22/3 9/23/3 60/24/3
f 14/25/1 16/26/1 9/27/1 4/28/1
f 29/29/5 46/30/5 45/31/5 28/32/5
f 62/33/4 10/34/4 24/35/4 68/36/4
f 17/37/4 12/38/4 38/39/4 39/40/4
f 22/41/2 9/42/2 37/43/2 48/44/2
f 34/45/1 18/46/1 15/2/1 33/1/1
f 57/47/4 5/48/4 15/49/4 63/50/4
f 52/51/6 53/52/6 36/53/6 41/54/6
f 63/55/4 15/56/4 18/57/4 66/58/4
f 35/59/1 26/60/1 18/46/1 34/45/1
f 69/61/2 27/62/2 19/63/2 65/64/2
f 27/65/1 28/66/1 20/67/1 19/68/1
f 12/69/4 25/70/4 49/71/4 38/72/4
f 38/73/7 49/74/7 51/75/7 53/52/7 39/76/7
f 19/77/5 20/78/5 42/79/5 40/80/5
f 14/81/2 19/82/2 40/83/2 41/84/2
f 60/85/2 9/86/2 22/87/2 67/88/2
f 28/66/1 8/89/1 11/90/1 29/91/1
f 3/92/1 8/89/1 28/66/1 27/65/1
f 56/93/3 1/94/3 74/95/3 84/96/3
f 31/97/1 6/98/1 26/60/1 35/59/1
f 66/99/4 18/100/4 26/101/4 70/102/4
f 11/90/1 31/97/1 35/59/1 29/91/1
f 29/91/1 35/59/1 34/45/1 21/103/1
f 33/104/3 17/105/3 39/106/3 44/107/3
f 2/108/3 57/109/3 107/110/3 101/111/3
f 62/112/3 12/113/3 32/114/3 72/115/3
f 17/116/1 33/1/1 32/4/1 12/117/1
f 52/51/8 41/54/8 40/118/8
f 40/118/9 42/119/9 53/52/9 52/51/9
f 42/119/10 45/120/10 54/121/10 53/52/10
f 44/122/11 50/123/11 47/124/11
f 45/120/12 46/125/12 54/121/12
f 9/126/2 16/127/2 36/128/2 37/129/2
f 16/130/3 14/131/3 41/132/3 36/133/3
f 20/134/2 28/135/2 45/136/2 42/137/2
f 29/138/4 21/139/4 43/140/4 46/141/4
f 67/142/3 22/143/3 25/144/3 68/145/3
f 65/146/2 19/147/2 14/148/2 64/149/2
f 21/150/5 34/151/5 47/152/5 43/153/5
f 51/75/13 49/74/13 48/154/13
f 51/75/10 48/154/10 37/155/10 36/53/10 53/52/10
f 58/156/1 71/157/1 96/158/1 94/159/1
f 25/160/3 22/161/3 48/162/3 49/163/3
f 34/164/4 33/165/4 44/166/4 47/167/4
f 54/121/7 46/125/7 43/168/7 53/52/7
f 50/123/9 53/52/9 43/168/9 47/124/9
f 50/123/6 44/122/6 39/76/6 53/52/6
f 8/169/5 59/170/5 61/171/5 11/172/5
f 3/92/1 27/65/1 82/173/1 76/174/1
f 23/175/3 67/176/3 68/177/3 24/178/3
f 10/179/3 62/180/3 72/181/3 30/182/3
f 11/183/5 61/184/5 71/185/5 31/186/5
f 7/187/2 60/188/2 67/189/2 23/190/2
f 64/191/1 56/192/1 84/193/1 77/194/1
f 13/195/14 2/196/14 101/197/14 102/198/14
f 57/199/1 63/200/1 103/201/1 107/202/1
f 12/203/4 62/204/4 68/205/4 25/206/4
f 1/207/3 56/208/3 60/209/3 7/210/3
f 3/92/1 76/174/1 98/211/1 88/212/1
f 31/213/5 71/214/5 58/215/5 6/216/5
f 30/182/3 72/181/3 57/217/3 2/218/3
f 27/219/3 69/220/3 83/221/3 82/222/3
f 75/223/2 76/224/2 82/225/2 83/226/2
f 79/227/2 80/228/2 77/229/2 73/230/2
f 81/231/2 75/232/2 83/233/2 78/234/2
f 78/234/2 83/233/2 80/228/2 79/227/2
f 73/230/2 77/229/2 84/235/2 74/236/2
f 65/237/1 64/191/1 77/194/1 80/238/1
f 69/239/1 65/237/1 80/238/1 83/240/1
f 59/241/4 8/242/4 91/243/4 92/244/4
f 96/245/5 85/246/5 86/247/5 94/248/5
f 87/249/5 89/250/5 90/251/5 92/252/5
f 95/253/5 93/254/5 85/246/5 96/245/5
f 92/252/5 90/251/5 93/254/5 95/253/5
f 88/255/5 87/256/5 92/257/5 91/258/5
f 87/256/5 88/255/5 98/259/5 97/260/5
f 89/250/5 87/249/5 97/261/5 99/262/5
f 8/89/1 3/92/1 88/212/1 91/263/1
f 71/264/1 61/265/1 95/266/1 96/267/1
f 76/224/2 75/223/2 97/268/2 98/269/2
f 75/232/2 81/231/2 99/270/2 97/271/2
f 100/272/4 108/273/4 110/274/4 109/275/4
f 105/276/4 104/277/4 106/278/4 55/279/4
f 102/280/4 103/281/4 104/277/4 105/276/4
f 101/282/4 107/283/4 103/281/4 102/280/4
f 55/279/4 106/278/4 108/273/4 100/272/4
f 70/284/1 58/285/1 108/286/1 106/287/1
f 66/288/1 70/284/1 106/287/1 104/289/1
f 58/285/1 94/290/1 110/291/1 108/286/1
f 63/200/1 66/288/1 104/289/1 103/201/1
f 94/292/5 86/293/5 109/294/5 110/295/5
