# Blender v2.79 (sub 0) OBJ File: 'segelclub-hamburg.blend'
# www.blender.org
mtllib segelclub-hamburg.mtl
o Cube
v 14.000000 0.000000 0.029815
v 14.000000 0.000000 22.983612
v 0.000000 0.000000 22.983612
v 0.000000 0.000000 0.029815
v 14.000000 5.149863 0.029815
v 13.999999 3.090246 22.983612
v -0.000000 3.090246 22.983612
v 0.000000 5.149863 0.029815
v 0.000000 0.000000 16.997076
v 14.000000 3.627355 16.997076
v -0.000000 3.627355 16.997076
v 0.000000 0.000000 10.988891
v 0.000000 4.166518 10.988891
v 14.000000 0.000000 10.988891
v 14.000000 4.166518 10.988891
v -6.000000 -0.000000 22.983612
v -6.000000 3.090246 22.983612
v -6.000000 -0.000000 16.997076
v -6.000000 3.627355 16.997076
v 20.000000 0.000000 22.983612
v 20.000000 3.090246 22.983612
v 20.000000 0.000000 16.997076
v 20.000000 3.627355 16.997076
v 20.000000 0.000000 10.988891
v 20.000000 4.166518 10.988891
v 26.000000 0.000000 4.988891
v 20.000000 -1.000000 4.988891
v 0.000000 -1.000000 0.029815
v 0.000000 -1.000000 10.988891
v 0.000000 0.000000 4.961399
v 26.000000 -1.000000 4.988891
v 20.000000 0.000000 4.988891
v 0.000000 4.707358 4.961399
v -15.000000 -0.000000 22.983612
v -15.000000 -0.000000 16.997076
v -15.000000 -1.000000 22.983612
v -15.000000 -1.000000 16.997076
v 26.000000 0.000000 16.997076
v 26.000000 0.000000 22.983612
v 26.000000 0.000000 10.988891
v 26.000000 -1.000000 16.997076
v 26.000000 -1.000000 22.983612
v 26.000000 -1.000000 10.988891
v 14.000000 0.000000 24.983612
v 0.000000 0.000000 24.983612
v -6.000000 -0.000000 24.983612
v 20.000000 0.000000 24.983612
v 14.000000 -1.000000 24.983612
v 0.000000 -1.000000 24.983612
v -6.000000 -1.000000 24.983612
v 20.000000 -1.000000 24.983612
v -15.000000 -1.000000 24.983612
v -15.000000 -0.000000 24.983612
v 26.000000 0.000000 24.983612
v 26.000000 -1.000000 24.983612
v 0.000000 0.000000 13.997076
v -6.000000 -0.000000 16.997076
v -6.000000 0.000000 13.229685
v -15.000000 -0.000000 16.997076
v -6.000000 -1.000000 13.229685
v -15.000000 0.000000 16.637457
v -15.000000 -1.000000 16.637457
v 14.000000 0.000000 4.975145
v 14.000000 4.707358 4.961399
v 0.000000 -1.000000 4.961399
v 20.000000 0.000000 0.029815
v 20.000000 0.000000 4.975145
v 20.000000 -1.000000 0.029815
v 20.000000 -1.000000 4.988891
v 14.000000 0.000000 -4.970185
v 0.000000 0.000000 -4.970185
v 14.000000 -1.000000 -4.970185
v 0.000000 -1.000000 -4.970185
v 20.000000 -1.000000 -4.970185
v 20.000000 0.000000 -4.970185
v 18.000305 3.627355 16.997076
v 18.000305 4.166518 10.988891
v 18.000305 0.000000 22.983612
v 18.000305 3.090246 22.983612
v 18.000305 0.000000 10.988891
v 18.000305 0.000000 24.983612
v 18.000305 -1.000000 24.983612
v 18.000305 0.000000 0.029815
v 18.000305 0.000000 -4.970185
v 18.000305 -1.000000 -4.970185
v 18.000305 0.000000 4.984079
v 20.000000 -1.000000 -12.970184
v 20.000000 0.000000 -12.970184
v 18.000305 0.000000 -12.970184
v 18.000305 -1.000000 -12.970184
v 20.000000 -1.000000 -14.970184
v 20.000000 0.000000 -14.970184
v 18.000305 0.000000 -14.970184
v 18.000305 -1.000000 -14.970184
v 20.000000 -1.000000 -42.970184
v 20.000000 0.000000 -42.970184
v 18.000305 0.000000 -42.970184
v 18.000305 -1.000000 -42.970184
v 20.000000 -1.000000 -44.970184
v 20.000000 0.000000 -44.970184
v 18.000305 0.000000 -44.970184
v 18.000305 -1.000000 -44.970184
v 98.000000 -1.000000 -12.970184
v 98.000000 0.000000 -12.970184
v 98.000000 -1.000000 -14.970184
v 98.000000 0.000000 -14.970184
v 130.000000 -1.000000 -42.970184
v 130.000000 0.000000 -42.970184
v 130.000000 -1.000000 -44.970184
v 130.000000 0.000000 -44.970184
v -9.999695 0.000000 -42.970184
v -9.999695 -1.000000 -42.970184
v -9.999695 0.000000 -44.970184
v -9.999695 -1.000000 -44.970184
v -11.999695 0.000000 -42.970184
v -11.999695 -1.000000 -42.970184
v -11.999695 0.000000 -44.970184
v -11.999695 -1.000000 -44.970184
v -9.999695 0.000000 -29.970184
v -9.999695 -1.000000 -29.970184
v -11.999695 0.000000 -29.970184
v -11.999695 -1.000000 -29.970184
v 2.000422 0.000000 0.029815
v 2.000422 0.000000 22.983612
v 2.000422 5.149863 0.029815
v 2.000421 3.090246 22.983612
v 2.000422 3.627355 16.997076
v 2.000422 4.166518 10.988891
v 2.000422 0.000000 24.983612
v 2.000422 -1.000000 24.983612
v 2.000422 4.707358 4.961399
v 2.000422 0.000000 -4.970185
v 2.000422 -1.000000 -4.970185
v 2.000422 0.000000 -14.970184
v 0.000000 0.000000 -14.970184
v 2.000422 -1.000000 -14.970184
v 0.000000 -1.000000 -14.970184
v 48.000000 0.000000 10.988891
v 48.000000 0.000000 4.988891
v 48.000000 -1.000000 4.988891
v 48.000000 -1.000000 10.988891
v 70.000000 0.000000 5.988891
v 70.000000 0.000000 -0.011109
v 70.000000 -1.000000 -0.011109
v 70.000000 -1.000000 5.988891
v 72.000000 0.000000 3.988891
v 72.000000 0.000000 1.988891
v 72.000000 -1.000000 1.988891
v 72.000000 -1.000000 3.988891
v 94.000000 0.000000 3.988891
v 94.000000 0.000000 1.988891
v 94.000000 -1.000000 1.988891
v 94.000000 -1.000000 3.988891
v 124.000000 0.000000 -0.525806
v 124.000000 -1.000000 -0.525806
v 124.000000 -1.000000 1.474194
v 124.000000 0.000000 1.474194
vn 0.0000 0.9960 0.0894
vn 0.0000 0.0000 1.0000
vn 0.0000 0.0000 -1.0000
vn -1.0000 0.0000 -0.0000
vn 1.0000 0.0000 0.0000
vn 0.0000 1.0000 0.0000
vn -0.3499 0.0000 -0.9368
vn -0.3541 0.0000 -0.9352
vn 0.0000 -1.0000 0.0000
vn 0.7071 0.0000 0.7071
vn 0.2216 0.0000 0.9751
vn -0.2216 0.0000 -0.9751
vn 0.7071 0.0000 -0.7071
vn -0.0835 0.0000 -0.9965
vn 0.0835 0.0000 0.9965
usemtl Material
s off
f 127//1 11//1 7//1 126//1
f 124//2 126//2 7//2 3//2
f 79//2 78//2 20//2 21//2
f 125//3 123//3 4//3 8//3
f 30//4 33//4 8//4 4//4
f 11//3 9//3 18//3 19//3
f 77//1 76//1 23//1 25//1
f 128//1 13//1 11//1 127//1
f 131//1 33//1 13//1 128//1
f 63//5 64//5 15//5 14//5
f 9//4 11//4 13//4 12//4
f 16//4 17//4 19//4 18//4
f 3//2 7//2 17//2 16//2
f 7//1 11//1 19//1 17//1
f 22//5 23//5 21//5 20//5
f 24//5 25//5 23//5 22//5
f 76//1 79//1 21//1 23//1
f 80//3 77//3 25//3 24//3
f 12//4 30//4 65//4 29//4
f 16//6 18//6 35//6 34//6
f 1//5 5//5 64//5 63//5
f 30//4 4//4 28//4 65//4
f 78//6 2//6 44//6 81//6
f 123//6 1//6 70//6 132//6
f 39//6 20//6 47//6 54//6
f 12//7 29//7 60//7 58//7
f 12//4 13//4 33//4 30//4
f 125//1 8//1 33//1 131//1
f 28//4 4//4 71//4 73//4
f 34//4 35//4 37//4 36//4
f 58//8 60//8 62//8 61//8
f 37//4 35//4 59//4 61//4 62//4
f 80//6 24//6 32//6 86//6
f 38//5 39//5 42//5 41//5
f 40//5 38//5 41//5 43//5
f 146//2 149//2 153//2 150//2
f 24//6 22//6 38//6 40//6
f 22//6 20//6 39//6 38//6
f 24//6 40//6 26//6 32//6
f 47//2 51//2 55//2 54//2
f 81//2 44//2 48//2 82//2
f 129//2 45//2 49//2 130//2
f 45//2 46//2 50//2 49//2
f 50//2 46//2 53//2 52//2
f 27//3 32//3 26//3 31//3
f 42//5 39//5 54//5 55//5
f 124//6 3//6 45//6 129//6
f 67//5 69//5 68//5 66//5
f 3//6 16//6 46//6 45//6
f 16//6 34//6 53//6 46//6
f 34//4 36//4 52//4 53//4
f 57//6 58//6 61//6 59//6
f 9//6 12//6 58//6 57//6
f 86//6 32//6 66//6 83//6
f 84//6 75//6 88//6 89//6
f 132//3 70//3 72//3 133//3
f 83//6 66//6 75//6 84//6
f 66//5 68//5 74//5 75//5
f 1//6 83//6 84//6 70//6
f 72//3 70//3 84//3 85//3
f 63//6 86//6 83//6 1//6
f 47//2 81//2 82//2 51//2
f 14//6 80//6 86//6 63//6
f 20//6 78//6 81//6 47//6
f 14//3 15//3 77//3 80//3
f 10//1 6//1 79//1 76//1
f 15//1 10//1 76//1 77//1
f 6//2 2//2 78//2 79//2
f 111//6 113//6 117//6 115//6
f 85//4 84//4 89//4 90//4
f 75//5 74//5 87//5 88//5
f 96//2 95//2 107//2 108//2
f 94//4 93//4 97//4 98//4
f 100//6 96//6 108//6 110//6
f 90//4 89//4 93//4 94//4
f 88//6 92//6 93//6 89//6
f 108//5 107//5 109//5 110//5
f 93//6 92//6 96//6 97//6
f 73//4 71//4 135//4 137//4
f 92//5 91//5 95//5 96//5
f 102//3 101//3 100//3 99//3
f 99//3 100//3 110//3 109//3
f 97//6 101//6 113//6 111//6
f 97//6 96//6 100//6 101//6
f 104//5 103//5 105//5 106//5
f 88//2 87//2 103//2 104//2
f 92//6 88//6 104//6 106//6
f 91//3 92//3 106//3 105//3
f 101//3 102//3 114//3 113//3
f 98//2 97//2 111//2 112//2
f 5//1 125//1 131//1 64//1
f 116//4 115//4 117//4 118//4
f 113//3 114//3 118//3 117//3
f 44//2 129//2 130//2 48//2
f 115//4 116//4 122//4 121//4
f 120//2 119//2 121//2 122//2
f 2//6 124//6 129//6 44//6
f 111//6 115//6 121//6 119//6
f 112//5 111//5 119//5 120//5
f 4//6 123//6 132//6 71//6
f 64//1 131//1 128//1 15//1
f 15//1 128//1 127//1 10//1
f 5//3 1//3 123//3 125//3
f 2//2 6//2 126//2 124//2
f 10//1 127//1 126//1 6//1
f 135//3 134//3 136//3 137//3
f 133//9 73//9 137//9 136//9
f 71//6 132//6 134//6 135//6
f 132//5 133//5 136//5 134//5
f 139//6 138//6 142//6 143//6
f 31//3 26//3 139//3 140//3
f 26//6 40//6 138//6 139//6
f 40//2 43//2 141//2 138//2
f 142//10 145//10 149//10 146//10
f 138//11 141//11 145//11 142//11
f 147//6 146//6 150//6 151//6
f 140//12 139//12 143//12 144//12
f 148//3 147//3 151//3 152//3
f 151//6 150//6 157//6 154//6
f 144//13 143//13 147//13 148//13
f 143//6 142//6 146//6 147//6
f 157//5 156//5 155//5 154//5
f 152//14 151//14 154//14 155//14
f 150//15 153//15 156//15 157//15
l 9 56
