# Blender v2.83.0 OBJ File: 'segelclub-hamburg.blend'
# www.blender.org
mtllib segelclub-hamburg.mtl
o Cube
v 14.000000 0.000000 0.029815
v 14.000000 0.000000 22.983612
v 0.000000 0.000000 22.983612
v 0.000000 0.000000 0.029815
v 14.000000 5.149863 0.029815
v 13.999999 3.090246 22.983612
v -0.000000 3.090246 22.983612
v 0.000000 5.149863 0.029815
v 0.000000 0.000000 16.997076
v 14.000000 3.627355 16.997076
v -0.000000 3.627355 16.997076
v 0.000000 0.000000 10.988891
v 0.000000 4.166518 10.988891
v 14.000000 0.000000 10.988891
v 14.000000 4.166518 10.988891
v -6.000000 -0.000000 22.983612
v -6.000000 3.090246 22.983612
v -6.000000 -0.000000 16.997076
v -6.000000 3.627355 16.997076
v 20.000000 0.000000 22.983612
v 20.000000 3.090246 22.983612
v 20.000000 0.000000 16.997076
v 20.000000 3.627355 16.997076
v 20.000000 0.000000 10.988891
v 20.000000 4.166518 10.988891
v 26.000000 0.000000 4.988891
v 20.000000 -1.000000 4.988891
v 0.000000 -1.000000 0.029815
v 0.000000 -1.000000 10.988891
v 0.000000 0.000000 4.961399
v 26.000000 -1.000000 4.988891
v 20.000000 0.000000 4.988891
v 0.000000 4.707358 4.961399
v -15.000000 -0.000000 22.983612
v -15.000000 -0.000000 16.997076
v -15.000000 -1.000000 22.983612
v -15.000000 -1.000000 16.997076
v 26.000000 0.000000 16.997076
v 26.000000 0.000000 22.983612
v 26.000000 0.000000 10.988891
v 26.000000 -1.000000 16.997076
v 26.000000 -1.000000 22.983612
v 26.000000 -1.000000 10.988891
v 14.000000 0.000000 24.983612
v 0.000000 0.000000 24.983612
v -6.000000 -0.000000 24.983612
v 20.000000 0.000000 24.983612
v 14.000000 -1.000000 24.983612
v 0.000000 -1.000000 24.983612
v -6.000000 -1.000000 24.983612
v 20.000000 -1.000000 24.983612
v -15.000000 -1.000000 24.983612
v -15.000000 -0.000000 24.983612
v 26.000000 0.000000 24.983612
v 26.000000 -1.000000 24.983612
v 0.000000 0.000000 13.997076
v -6.000000 -0.000000 16.997076
v -6.000000 0.000000 13.229685
v -15.000000 -0.000000 16.997076
v -6.000000 -1.000000 13.229685
v -15.000000 0.000000 16.637457
v -15.000000 -1.000000 16.637457
v 14.000000 0.000000 4.975145
v 14.000000 4.707358 4.961399
v 0.000000 -1.000000 4.961399
v 20.000000 0.000000 0.029815
v 20.000000 0.000000 4.975145
v 20.000000 -1.000000 0.029815
v 20.000000 -1.000000 4.988891
v 14.000000 0.000000 -4.970185
v 0.000000 0.000000 -4.970185
v 14.000000 -1.000000 -4.970185
v 0.000000 -1.000000 -4.970185
v 20.000000 -1.000000 -4.970185
v 20.000000 0.000000 -4.970185
v 18.000305 3.627355 16.997076
v 18.000305 4.166518 10.988891
v 18.000305 0.000000 22.983612
v 18.000305 3.090246 22.983612
v 18.000305 0.000000 10.988891
v 18.000305 0.000000 24.983612
v 18.000305 -1.000000 24.983612
v 18.000305 0.000000 0.029815
v 18.000305 0.000000 -4.970185
v 18.000305 -1.000000 -4.970185
v 18.000305 0.000000 4.984079
v 20.000000 -1.000000 -12.970184
v 20.000000 0.000000 -12.970184
v 18.000305 0.000000 -12.970184
v 18.000305 -1.000000 -12.970184
v 20.000000 -1.000000 -14.970184
v 20.000000 0.000000 -14.970184
v 18.000305 0.000000 -14.970184
v 18.000305 -1.000000 -14.970184
v 20.000000 -1.000000 -42.970184
v 20.000000 0.000000 -42.970184
v 18.000305 0.000000 -42.970184
v 18.000305 -1.000000 -42.970184
v 20.000000 -1.000000 -44.970184
v 20.000000 0.000000 -44.970184
v 18.000305 0.000000 -44.970184
v 18.000305 -1.000000 -44.970184
v 98.000000 -1.000000 -12.970184
v 98.000000 0.000000 -12.970184
v 98.000000 -1.000000 -14.970184
v 98.000000 0.000000 -14.970184
v 130.000000 -1.000000 -42.970184
v 130.000000 0.000000 -42.970184
v 130.000000 -1.000000 -44.970184
v 130.000000 0.000000 -44.970184
v -9.999695 0.000000 -42.970184
v -9.999695 -1.000000 -42.970184
v -9.999695 0.000000 -44.970184
v -9.999695 -1.000000 -44.970184
v -11.999695 0.000000 -42.970184
v -11.999695 -1.000000 -42.970184
v -11.999695 0.000000 -44.970184
v -11.999695 -1.000000 -44.970184
v -9.999695 0.000000 -29.970184
v -9.999695 -1.000000 -29.970184
v -11.999695 0.000000 -29.970184
v -11.999695 -1.000000 -29.970184
v 2.000422 0.000000 0.029815
v 2.000422 0.000000 22.983612
v 2.000422 5.149863 0.029815
v 2.000421 3.090246 22.983612
v 2.000422 3.627355 16.997076
v 2.000422 4.166518 10.988891
v 2.000422 0.000000 24.983612
v 2.000422 -1.000000 24.983612
v 2.000422 4.707358 4.961399
v 2.000422 0.000000 -4.970185
v 2.000422 -1.000000 -4.970185
v 2.000422 0.000000 -14.970184
v 0.000000 0.000000 -14.970184
v 2.000422 -1.000000 -14.970184
v 0.000000 -1.000000 -14.970184
v 48.000000 0.000000 10.988891
v 48.000000 0.000000 4.988891
v 48.000000 -1.000000 4.988891
v 48.000000 -1.000000 10.988891
v 70.000000 0.000000 5.988891
v 70.000000 0.000000 -0.011109
v 70.000000 -1.000000 -0.011109
v 70.000000 -1.000000 5.988891
v 72.000000 0.000000 3.988891
v 72.000000 0.000000 1.988891
v 72.000000 -1.000000 1.988891
v 72.000000 -1.000000 3.988891
v 94.000000 0.000000 3.988891
v 94.000000 0.000000 1.988891
v 94.000000 -1.000000 1.988891
v 94.000000 -1.000000 3.988891
v 124.000000 0.000000 -0.525806
v 124.000000 -1.000000 -0.525806
v 124.000000 -1.000000 1.474194
v 124.000000 0.000000 1.474194
v 9.951862 -8.335793 11.530241
vt 0.899472 0.766221
vt 0.899472 0.758527
vt 0.922590 0.758527
vt 0.922590 0.766221
vt 0.308957 0.000473
vt 0.308956 0.119206
vt 0.232097 0.119206
vt 0.232097 0.000473
vt 0.923701 0.119206
vt 0.923701 0.000473
vt 1.000533 0.000473
vt 1.000533 0.119206
vt 0.694087 0.324103
vt 0.694087 0.125991
vt 0.766120 0.125991
vt 0.766120 0.324103
vt 0.784541 0.329400
vt 0.784541 0.530926
vt 0.990745 0.549870
vt 0.990745 0.329400
vt 0.771042 0.265533
vt 0.771042 0.125991
vt 1.001858 0.125991
vt 1.001858 0.265533
vt 0.876270 0.827761
vt 0.899472 0.827761
vt 0.899472 0.835452
vt 0.876270 0.835452
vt 0.876270 0.766221
vt 0.876270 0.758527
vt 0.852994 0.766221
vt 0.852994 0.758527
vt 0.784881 0.326700
vt 0.785474 0.529525
vt 0.525769 0.506222
vt 0.525769 0.326700
vt 0.269283 0.329400
vt 0.269283 0.484690
vt 0.526499 0.507772
vt 0.526499 0.329400
vt 0.012994 0.329400
vt 0.012994 0.461696
vt 0.269283 0.484690
vt 0.269283 0.329400
vt 0.001566 0.119206
vt 0.001566 0.000473
vt 0.922590 0.752371
vt 0.899472 0.752371
vt 0.899472 0.741605
vt 0.922590 0.741605
vt 0.266896 0.326700
vt 0.266896 0.482991
vt 0.008955 0.459849
vt 0.008955 0.326700
vt 0.525769 0.326700
vt 0.525769 0.506222
vt 0.922590 0.827761
vt 0.922590 0.835452
vt 0.078584 0.125991
vt 0.078584 0.286274
vt 0.001657 0.286274
vt 0.001657 0.125991
vt 0.533748 0.778736
vt 0.757084 0.778736
vt 0.757084 0.815789
vt 0.533748 0.815789
vt 0.398386 0.555257
vt 0.398386 0.736330
vt 0.126166 0.736330
vt 0.126166 0.555257
vt 0.997959 0.326700
vt 0.997959 0.548591
vt 0.939813 0.778736
vt 0.939813 0.815789
vt 0.987959 0.728724
vt 0.868312 0.728724
vt 0.868312 0.668904
vt 0.987959 0.668904
vt 0.215947 0.569981
vt 0.579793 0.569981
vt 0.579793 0.721589
vt 0.215947 0.721589
vt 0.353568 0.729056
vt 0.172110 0.729056
vt 0.172110 0.668569
vt 0.353568 0.668569
vt 0.296432 0.815789
vt 0.296432 0.778736
vt 0.833949 0.766221
vt 0.833949 0.758527
vt 3.676338 0.848113
vt 3.676338 0.997197
vt 2.930919 0.997198
vt 2.930919 0.848114
vt 0.598959 0.833116
vt 0.162947 0.833116
vt 0.162947 0.760284
vt 0.598959 0.760284
vt -0.060149 0.815789
vt -0.060149 0.778736
vt 0.162947 0.833116
vt 0.136755 0.833116
vt 0.136755 0.760284
vt 0.110767 0.554946
vt 0.171314 0.554946
vt 0.240064 0.736613
vt 0.110767 0.736759
vt 0.432656 0.826139
vt 0.035632 0.826139
vt 0.035632 0.759820
vt 0.432656 0.759820
vt 0.759241 0.826139
vt 0.759241 0.759820
vt 0.425734 1.000860
vt 0.425733 0.845632
vt 3.840759 0.845641
vt 3.840758 1.000864
vt 0.171278 0.737321
vt 0.171278 0.554659
vt 0.353691 0.554659
vt 0.281816 0.737321
vt 0.171388 0.736672
vt 0.171388 0.555107
vt 0.353361 0.555107
vt 0.353361 0.736672
vt 0.281106 0.554946
vt 0.352981 0.736613
vt 2.882415 0.832256
vt 2.882415 0.752233
vt 3.375704 0.752233
vt 3.375704 0.832256
vt 2.718011 0.832256
vt 2.389127 0.832256
vt 2.389127 0.752233
vt 2.718011 0.752233
vt 1.402583 0.832256
vt 1.238119 0.832256
vt 1.238119 0.752233
vt 1.402583 0.752233
vt 0.744830 0.832256
vt 0.744830 0.752233
vt 0.004897 0.832256
vt 0.004897 0.752233
vt 8.999483 0.842907
vt 8.999483 1.000836
vt 7.983160 1.000839
vt 7.983160 0.842910
vt -0.097008 0.826139
vt -0.097008 0.759820
vt 0.509409 0.728724
vt 0.449577 0.728724
vt 0.449577 0.668904
vt 0.509409 0.668904
vt -0.747330 0.999879
vt -0.749480 0.843428
vt 0.026377 0.843427
vt 0.026377 0.999879
vt 0.270119 0.728724
vt 0.270119 0.668904
vt 0.000932 0.728724
vt 0.000932 0.668904
vt 0.744623 0.760284
vt 0.744623 0.833116
vt 0.397716 0.560512
vt 0.397716 0.674096
vt 0.126373 0.571354
vt 0.126373 0.560512
vt 0.578612 0.560512
vt 0.578612 0.741655
vt 0.699811 0.569957
vt 0.829768 0.569810
vt 0.761018 0.721598
vt 0.699811 0.721598
vt 0.126101 0.682909
vt 0.191725 0.618327
vt 0.367318 0.620188
vt 0.412584 0.673534
vt -0.348986 0.997198
vt -2.137924 0.997198
vt -2.137924 0.848115
vt -0.348985 0.848114
vt 0.701089 0.569981
vt 0.761723 0.569981
vt 0.761723 0.721589
vt 0.635464 0.730964
vt 0.808634 0.843428
vt 0.808634 0.999879
vt -2.734303 0.997199
vt -2.734303 0.848115
vt 0.577369 0.570231
vt 0.577369 0.721598
vt -0.010353 0.554946
vt -0.010353 0.737029
vt 1.047770 0.728724
vt 1.047770 0.668904
vt 0.232472 0.125991
vt 0.232472 0.286274
vt 0.899472 0.812375
vt 0.922590 0.812375
vt 0.876270 0.812375
vt 0.770002 0.119206
vt 0.770002 0.000473
vt -1.413681 0.617187
vt -1.413681 0.674248
vt -1.470742 0.674248
vt -1.470742 0.617187
vt 2.888536 0.856658
vt 2.888536 1.003517
vt 1.779293 0.994142
vt 1.779293 0.847284
vt 2.014981 0.845288
vt 2.014980 1.001739
vt -7.612383 0.997054
vt -7.612383 0.848797
vt 8.725406 0.848797
vt 8.725406 0.997054
vt 1.485577 0.847283
vt 1.485577 0.994141
vt -2.626447 0.994141
vt -2.626447 0.847280
vt -0.557781 0.674248
vt -0.635934 0.617187
vt 2.556928 0.617187
vt 2.606143 0.674248
vt 0.467798 0.618327
vt 0.467798 0.673534
vt 0.389986 0.996062
vt 0.389986 0.843008
vt 0.745309 0.843008
vt 0.745309 0.996062
vt 1.162650 0.618327
vt 1.240803 0.673534
vt 1.440081 0.997197
vt 1.440081 0.848115
vt -1.999759 1.002967
vt -1.999759 0.845297
vt 2.336846 0.845297
vt 2.336846 1.002970
vt 7.191556 0.849163
vt 7.191556 0.997150
vt 6.895626 0.997150
vt 6.895626 0.849163
vt -9.382990 0.997150
vt -9.382990 0.849163
vt -0.614833 0.617187
vt -0.614833 0.674248
vt -0.001728 1.003746
vt -0.001728 0.843184
vt 0.380705 0.843184
vt 0.380705 1.003746
vt -3.116988 1.003541
vt -3.116249 0.843860
vt 6.005101 0.840139
vt 6.004361 1.003541
vt -0.454988 0.674189
vt -0.500254 0.619905
vt 1.707092 0.618045
vt 1.803403 0.674189
vt 4.756972 0.844427
vt 4.756232 1.003839
vt -4.377367 1.003840
vt -4.376629 0.844428
vt 11.335204 0.849163
vt 11.335204 0.997150
vt 2.530877 0.847508
vt 2.530877 0.995303
vt -1.607358 0.995302
vt -1.607358 0.847505
vt 0.833949 0.812375
vt 0.852994 0.812375
vt -0.313504 0.850210
vt -0.313504 0.998057
vt -0.609198 0.998058
vt -0.609198 0.850210
vt 11.631178 0.849163
vt 11.631178 0.997150
vt 1.581228 0.850211
vt 1.581228 0.998057
vt 0.745240 0.847947
vt 0.745240 1.000175
vt 0.388697 1.000175
vt 0.388697 0.847946
vt 0.826139 0.617437
vt 0.826139 0.675099
vt 0.424054 0.675099
vt 0.451338 0.617437
vt 1.540144 0.849403
vt 1.540144 0.997940
vt -0.390827 0.997939
vt -0.390826 0.849403
vt 0.150370 0.569981
vt 0.155291 0.721589
vt 0.232472 0.324103
vt 0.232472 0.125991
vt 1.141853 0.997197
vt 1.141853 0.848114
vt 0.491341 0.675843
vt 0.491341 0.616511
vt 0.787938 0.616511
vt 0.787938 0.675843
vt 0.391705 0.727407
vt 0.354884 0.564841
vt 0.981643 0.565303
vt 1.018464 0.727869
vt 4.508723 1.000843
vt 4.508722 0.842919
vt 1.019095 0.554946
vt 1.019095 0.736613
vt -6.858961 1.000878
vt -6.858961 0.845638
vt -3.515568 0.845634
vt -3.515570 1.000868
vt -0.013317 1.000860
vt -0.013317 0.845632
vt 0.409007 0.674059
vt 0.409007 0.618331
vt 1.022030 0.618331
vt 1.022030 0.674059
vt 0.945794 1.000844
vt 0.945795 0.842926
vt 0.499135 0.842926
vt 0.499135 1.000843
vt -2.975055 1.000834
vt -2.975055 0.842921
vt 0.234463 0.673635
vt 0.229831 0.619719
vt 1.044394 0.618028
vt 1.049026 0.671944
vt 0.353278 0.729789
vt 0.353278 0.562601
vt 0.388239 1.000262
vt 0.388239 0.842310
vt 0.749666 0.842310
vt 0.749666 1.000262
vt -7.729053 1.000821
vt -7.729053 0.842908
vt 8.513800 0.845652
vt 8.513800 1.000876
vn 0.0000 0.9960 0.0894
vn 0.0000 0.0000 1.0000
vn 0.0000 0.0000 -1.0000
vn -1.0000 0.0000 -0.0000
vn 1.0000 0.0000 0.0000
vn 0.0000 1.0000 0.0000
vn -0.3499 0.0000 -0.9368
vn -0.3541 0.0000 -0.9352
vn 0.7071 0.0000 0.7071
vn 0.2216 0.0000 0.9751
vn -0.2216 0.0000 -0.9751
vn 0.7071 0.0000 -0.7071
vn -0.0835 0.0000 -0.9965
vn 0.0835 0.0000 0.9965
usemtl Texture_Material
s off
f 127/1/1 11/2/1 7/3/1 126/4/1
f 124/5/2 126/6/2 7/7/2 3/8/2
f 79/9/2 78/10/2 20/11/2 21/12/2
f 125/13/3 123/14/3 4/15/3 8/16/3
f 30/17/4 33/18/4 8/19/4 4/20/4
f 11/21/3 9/22/3 18/23/3 19/24/3
f 77/25/1 76/26/1 23/27/1 25/28/1
f 128/29/1 13/30/1 11/2/1 127/1/1
f 131/31/1 33/32/1 13/30/1 128/29/1
f 63/33/5 64/34/5 15/35/5 14/36/5
f 9/37/4 11/38/4 13/39/4 12/40/4
f 16/41/4 17/42/4 19/43/4 18/44/4
f 3/8/2 7/7/2 17/45/2 16/46/2
f 7/47/1 11/48/1 19/49/1 17/50/1
f 22/51/5 23/52/5 21/53/5 20/54/5
f 24/55/5 25/56/5 23/52/5 22/51/5
f 76/26/1 79/57/1 21/58/1 23/27/1
f 80/59/3 77/60/3 25/61/3 24/62/3
f 12/63/4 30/64/4 65/65/4 29/66/4
f 16/67/6 18/68/6 35/69/6 34/70/6
f 1/71/5 5/72/5 64/34/5 63/33/5
f 30/64/4 4/73/4 28/74/4 65/65/4
f 78/75/6 2/76/6 44/77/6 81/78/6
f 123/79/6 1/80/6 70/81/6 132/82/6
f 39/83/6 20/84/6 47/85/6 54/86/6
f 12/63/7 29/66/7 60/87/7 58/88/7
f 12/40/4 13/39/4 33/18/4 30/17/4
f 125/89/1 8/90/1 33/32/1 131/31/1
f 28/91/4 4/92/4 71/93/4 73/94/4
f 34/95/4 35/96/4 37/97/4 36/98/4
f 58/88/8 60/87/8 62/99/8 61/100/8
f 37/97/4 35/96/4 59/101/4 61/102/4 62/103/4
f 80/104/6 24/105/6 32/106/6 86/107/6
f 38/108/5 39/109/5 42/110/5 41/111/5
f 40/112/5 38/108/5 41/111/5 43/113/5
f 146/114/2 149/115/2 153/116/2 150/117/2
f 24/118/6 22/119/6 38/120/6 40/121/6
f 22/122/6 20/123/6 39/124/6 38/125/6
f 24/105/6 40/126/6 26/127/6 32/106/6
f 47/128/2 51/129/2 55/130/2 54/131/2
f 81/132/2 44/133/2 48/134/2 82/135/2
f 129/136/2 45/137/2 49/138/2 130/139/2
f 45/137/2 46/140/2 50/141/2 49/138/2
f 50/141/2 46/140/2 53/142/2 52/143/2
f 27/144/3 32/145/3 26/146/3 31/147/3
f 42/110/5 39/109/5 54/148/5 55/149/5
f 124/150/6 3/151/6 45/152/6 129/153/6
f 67/154/5 69/155/5 68/156/5 66/157/5
f 3/151/6 16/158/6 46/159/6 45/152/6
f 16/158/6 34/160/6 53/161/6 46/159/6
f 34/95/4 36/98/4 52/162/4 53/163/4
f 57/164/6 58/165/6 61/166/6 59/167/6
f 9/168/6 12/169/6 58/165/6 57/164/6
f 86/170/6 32/171/6 66/172/6 83/173/6
f 84/174/6 75/175/6 88/176/6 89/177/6
f 132/178/3 70/179/3 72/180/3 133/181/3
f 83/182/6 66/183/6 75/184/6 84/185/6
f 66/157/5 68/156/5 74/186/5 75/187/5
f 1/80/6 83/182/6 84/185/6 70/81/6
f 72/180/3 70/179/3 84/188/3 85/189/3
f 63/190/6 86/170/6 83/173/6 1/191/6
f 47/128/2 81/132/2 82/135/2 51/129/2
f 14/192/6 80/104/6 86/107/6 63/193/6
f 20/194/6 78/75/6 81/78/6 47/195/6
f 14/196/3 15/197/3 77/60/3 80/59/3
f 10/198/1 6/199/1 79/57/1 76/26/1
f 15/200/1 10/198/1 76/26/1 77/25/1
f 6/201/2 2/202/2 78/10/2 79/9/2
f 111/203/6 113/204/6 117/205/6 115/206/6
f 85/207/4 84/208/4 89/209/4 90/210/4
f 75/187/5 74/186/5 87/211/5 88/212/5
f 96/213/2 95/214/2 107/215/2 108/216/2
f 94/217/4 93/218/4 97/219/4 98/220/4
f 100/221/6 96/222/6 108/223/6 110/224/6
f 90/210/4 89/209/4 93/218/4 94/217/4
f 88/176/6 92/225/6 93/226/6 89/177/6
f 108/227/5 107/228/5 109/229/5 110/230/5
f 93/226/6 92/225/6 96/231/6 97/232/6
f 73/94/4 71/93/4 135/233/4 137/234/4
f 92/235/5 91/236/5 95/237/5 96/238/5
f 102/239/3 101/240/3 100/241/3 99/242/3
f 99/242/3 100/241/3 110/243/3 109/244/3
f 97/245/6 101/246/6 113/204/6 111/203/6
f 97/245/6 96/222/6 100/221/6 101/246/6
f 104/247/5 103/248/5 105/249/5 106/250/5
f 88/251/2 87/252/2 103/253/2 104/254/2
f 92/255/6 88/256/6 104/257/6 106/258/6
f 91/259/3 92/260/3 106/261/3 105/262/3
f 101/240/3 102/239/3 114/263/3 113/264/3
f 98/265/2 97/266/2 111/267/2 112/268/2
f 5/269/1 125/89/1 131/31/1 64/270/1
f 116/271/4 115/272/4 117/273/4 118/274/4
f 113/264/3 114/263/3 118/275/3 117/276/3
f 44/133/2 129/136/2 130/139/2 48/134/2
f 115/272/4 116/271/4 122/277/4 121/278/4
f 120/279/2 119/280/2 121/281/2 122/282/2
f 2/76/6 124/150/6 129/153/6 44/77/6
f 111/283/6 115/284/6 121/285/6 119/286/6
f 112/287/5 111/288/5 119/289/5 120/290/5
f 4/291/6 123/79/6 132/82/6 71/292/6
f 64/270/1 131/31/1 128/29/1 15/200/1
f 15/200/1 128/29/1 127/1/1 10/198/1
f 5/293/3 1/294/3 123/14/3 125/13/3
f 2/202/2 6/201/2 126/6/2 124/5/2
f 10/198/1 127/1/1 126/4/1 6/199/1
f 135/233/3 134/295/3 136/296/3 137/234/3
f 71/297/6 132/298/6 134/299/6 135/300/6
f 132/178/5 133/181/5 136/296/5 134/295/5
f 139/301/6 138/302/6 142/303/6 143/304/6
f 31/147/3 26/146/3 139/305/3 140/306/3
f 26/127/6 40/126/6 138/307/6 139/308/6
f 40/309/2 43/310/2 141/311/2 138/312/2
f 142/313/9 145/314/9 149/115/9 146/114/9
f 138/312/10 141/311/10 145/314/10 142/313/10
f 147/315/6 146/316/6 150/317/6 151/318/6
f 140/306/11 139/305/11 143/319/11 144/320/11
f 148/321/3 147/322/3 151/323/3 152/324/3
f 151/325/6 150/326/6 157/327/6 154/328/6
f 144/320/12 143/319/12 147/322/12 148/321/12
f 143/329/6 142/330/6 146/316/6 147/315/6
f 157/331/5 156/332/5 155/333/5 154/334/5
f 152/324/13 151/323/13 154/335/13 155/336/13
f 150/117/14 153/116/14 156/337/14 157/338/14
l 9 56
