# Blender v2.79 (sub 0) OBJ File: 'segelschule-pruesse_rot_-27.blend'
# www.blender.org
mtllib segelschule-pruesse.mtl
o Cube
v 18.004189 0.554365 -9.183537
v 22.544090 0.554365 -0.273477
v 4.723968 0.554365 8.806330
v 0.184069 0.554365 -0.103734
v 18.004192 3.554365 -9.183538
v 22.544086 3.554365 -0.273471
v 4.723966 3.554365 8.806330
v 0.184067 3.554365 -0.103732
v 13.634026 5.054365 4.266429
v 7.693985 5.054365 7.293030
v 12.064150 3.554365 -6.156935
v 6.124109 3.554365 -3.130333
v 16.604046 3.554365 2.753129
v 10.664005 3.554365 5.779729
v -8.237741 0.554365 -3.346869
v 15.034172 5.054365 -7.670236
v 19.574066 5.054365 1.239829
v 3.154088 5.054365 -1.617033
v 26.416729 0.554365 -2.246684
v 9.094130 5.054365 -4.643634
v 18.829153 0.554365 -17.138140
v -0.650170 0.554365 11.544588
v 18.829153 -0.945635 -17.138140
v 26.416729 -0.945635 -2.246684
v -8.237741 -0.945635 -3.346869
v -0.650170 -0.945635 11.544588
v 2.831400 0.554365 -8.986876
v 2.831400 -0.945635 -8.986876
v 0.685769 -0.945635 -7.893622
v 0.685769 0.554365 -7.893622
v -7.891035 -0.945635 -30.030834
v -10.036665 -0.945635 -28.937582
v -7.891035 0.554365 -30.030834
v -10.036665 0.554365 -28.937582
v -9.175373 -0.945635 -32.551491
v -11.321003 -0.945635 -31.458241
v -9.175373 0.554365 -32.551491
v -11.321003 0.554365 -31.458241
v -15.021156 0.554365 -26.397856
v -15.021156 -0.945635 -26.397856
v -16.305496 0.554365 -28.918514
v -16.305496 -0.945635 -28.918514
v 22.496553 -0.945635 -0.249255
v 4.763484 -0.945635 8.786196
v 12.064148 0.554365 -6.156936
v 6.124108 0.554365 -3.130335
v 15.034168 0.554365 -7.670236
v 9.094129 0.554365 -4.643636
v 3.154088 0.554365 -1.617034
v 12.057814 0.554365 -13.687969
v 12.057814 -0.945635 -13.687969
v 9.025587 0.554365 -12.142973
v 9.025587 -0.945635 -12.142973
v 6.088446 0.554365 -10.646423
v 6.088446 -0.945635 -10.646423
v 19.574070 0.554365 1.239825
v 16.604050 0.554365 2.753125
v 13.634029 0.554365 4.266427
v 10.664009 0.554365 5.779727
v 7.693989 0.554365 7.293028
v 19.541040 -0.945635 1.256653
v 16.585529 -0.945635 2.762562
v 13.630018 -0.945635 4.268470
v 10.674507 -0.945635 5.774379
v 7.718995 -0.945635 7.280287
vt 0.743671 0.646361
vt 0.743671 0.434909
vt 0.835576 0.434909
vt 0.835576 0.788311
vt 0.320767 0.434909
vt 0.320767 0.646361
vt 0.193228 0.788311
vt 0.193228 0.434909
vt 0.173003 0.812934
vt 0.004653 0.812933
vt 0.004653 0.259151
vt 0.173003 0.259150
vt 0.171444 0.814047
vt 0.004915 0.814047
vt 0.004914 0.258948
vt 0.171444 0.258948
vt 0.674408 0.483565
vt 0.393632 0.483565
vt 0.393632 0.458366
vt 0.674408 0.458366
vt 0.328772 0.637636
vt 0.730830 0.637636
vt 0.730830 0.437445
vt 0.328772 0.437445
vt 1.105760 -0.297685
vt 1.106482 -0.268644
vt 1.106482 -0.239602
vt 1.106626 -0.210561
vt 1.107059 -0.181520
vt 1.107347 -0.152478
vt 1.107347 -0.123437
vt 1.107636 -0.070888
vt 1.105471 -0.335552
vt 0.731418 0.437302
vt 0.731383 0.637584
vt 0.328607 0.637079
vt 0.328654 0.437584
vt 0.328548 0.437269
vt 0.328548 0.637749
vt 0.731773 0.637749
vt 0.731773 0.437270
vt 0.731145 0.637229
vt 0.731145 0.437874
vt 0.328531 0.437874
vt 0.328531 0.637229
vt 0.730923 0.438023
vt 0.328865 0.438023
vt 0.328865 0.637417
vt 0.730923 0.637417
vt 0.674880 0.788311
vt 0.673187 0.646361
vt 0.731865 0.637788
vt 0.731865 0.437998
vt 0.328562 0.437365
vt 0.328562 0.637788
vt 1.228016 1.000679
vt -0.003978 1.000679
vt -0.003978 0.816158
vt 1.228016 0.816158
vt 0.724019 0.634088
vt 0.324335 0.634088
vt 0.324335 0.598216
vt 0.724019 0.598216
vt 0.950963 0.999077
vt 0.001684 0.999077
vt 0.001684 0.811711
vt 0.950963 0.811711
vt -0.001438 0.997801
vt -0.001438 0.812574
vt 2.915049 0.812574
vt 2.915049 0.997801
vt 0.690285 0.815993
vt 0.690285 1.001544
vt -0.001724 1.001544
vt -0.001724 0.815993
vt 2.870624 0.817060
vt 2.870624 0.999274
vt 0.001563 0.999274
vt 0.001563 0.817060
vt 0.941227 0.628836
vt 0.998086 0.628836
vt 0.998086 0.071170
vt 0.941227 0.071170
vt 0.305368 0.998347
vt 0.001031 0.998347
vt 0.001031 0.808777
vt 0.305368 0.808777
vt 2.914917 0.997552
vt 2.914917 0.813450
vt 3.262132 0.813450
vt 3.262132 0.997552
vt 0.998086 0.004373
vt 0.941227 0.004373
vt 0.355768 0.812177
vt 0.355768 0.997913
vt 0.005470 0.997913
vt 0.005470 0.812177
vt 0.809137 0.004373
vt 0.809137 0.071170
vt 1.012370 0.808777
vt 1.012370 0.998347
vt 0.000774 0.000632
vt 0.187449 0.000632
vt 0.187449 0.252643
vt 0.000774 0.168639
vt 0.358962 0.448429
vt 0.429792 0.448429
vt 0.429275 0.465915
vt 0.358962 0.465915
vt 0.661804 0.448429
vt 0.713094 0.448429
vt 0.713094 0.465915
vt 0.662426 0.465915
vt 0.507129 0.448429
vt 0.506992 0.465915
vt 0.468133 0.465915
vt 0.468461 0.448429
vt 0.563577 0.253219
vt 0.377209 0.169353
vt 0.377209 0.001622
vt 0.563577 0.001622
vt 0.376843 0.175570
vt 0.562807 0.259254
vt 0.562807 0.426621
vt 0.376843 0.426621
vt 0.374124 0.168639
vt 0.374124 0.000632
vt 0.749945 0.169353
vt 0.749945 0.001622
vt 0.190880 0.426621
vt 0.190880 0.259254
vt 1.376053 0.999077
vt 1.376053 0.811711
vt 0.391251 0.646361
vt 0.405000 0.788311
vt 1.787813 0.999077
vt 1.787813 0.811711
vt 2.244421 0.999077
vt 2.244421 0.811711
vt 0.602919 0.788311
vt 0.602703 0.646361
vt 0.533215 0.788311
vt 0.532219 0.646361
vt 0.455920 0.788311
vt 0.461735 0.646361
vt 0.937325 0.428176
vt 0.752164 0.428176
vt 0.752164 0.178208
vt 0.937325 0.261531
vt 0.567002 0.428176
vt 0.567002 0.261531
vt 0.938779 0.260850
vt 0.938779 0.428380
vt 0.752636 0.428380
vt 0.752636 0.177086
vt 0.566492 0.428380
vt 0.566492 0.260850
vt 0.937295 0.261531
vt 0.937295 0.428176
vt 0.752133 0.428176
vt 0.752133 0.178208
vt 0.566971 0.428176
vt 0.566971 0.261530
vt 0.545798 0.448429
vt 0.545850 0.465915
vt 0.584467 0.448429
vt 0.584709 0.465915
vt 0.623135 0.448429
vt 0.623568 0.465915
vn 0.0000 1.0000 0.0000
vn 0.8910 0.0000 -0.4540
vn -0.8910 -0.0000 0.4540
vn 0.3656 0.9119 -0.1863
vn 0.0000 -1.0000 0.0000
vn -0.3656 0.9119 0.1863
vn -0.4540 0.0000 -0.8910
vn 0.4540 0.0000 0.8910
usemtl Material.001
s off
f 1/1/1 2/2/1 19/3/1 21/4/1
f 3/5/1 4/6/1 15/7/1 22/8/1
f 1/9/2 5/10/2 6/11/2 2/12/2
f 3/13/3 7/14/3 8/15/3 4/16/3
f 22/17/3 15/18/3 25/19/3 26/20/3
f 18/21/4 10/22/4 14/23/4 12/24/4
f 2/25/5 56/26/5 57/27/5 58/28/5 59/29/5 60/30/5 3/31/5 22/32/5 19/33/5
f 5/34/4 16/35/4 17/36/4 6/37/4
f 20/38/6 12/39/6 14/40/6 9/41/6
f 11/42/4 20/43/4 9/44/4 13/45/4
f 8/46/6 7/47/6 10/48/6 18/49/6
f 21/4/1 50/50/1 47/51/1 1/1/1
f 16/52/6 11/53/6 13/54/6 17/55/6
f 15/56/7 30/57/7 29/58/7 25/59/7
f 21/60/2 19/61/2 24/62/2 23/63/2
f 50/64/7 21/65/7 23/66/7 51/67/7
f 27/68/2 28/69/2 31/70/2 33/71/2
f 32/72/8 34/73/8 39/74/8 40/75/8
f 29/76/3 30/77/3 34/78/3 32/79/3
f 30/80/1 27/81/1 33/82/1 34/83/1
f 38/84/7 37/85/7 35/86/7 36/87/7
f 33/88/2 31/89/2 35/90/2 37/91/2
f 34/83/1 33/82/1 37/92/1 38/93/1
f 40/94/3 39/95/3 41/96/3 42/97/3
f 34/83/1 38/93/1 41/98/1 39/99/1
f 38/84/7 36/87/7 42/100/7 41/101/7
f 1/102/7 47/103/7 16/104/7 5/105/7
f 26/106/8 44/107/8 3/108/8 22/109/8
f 43/110/8 24/111/8 19/112/8 2/113/8
f 64/114/8 59/115/8 60/116/8 65/117/8
f 20/118/7 11/119/7 45/120/7 48/121/7
f 18/122/7 12/123/7 46/124/7 49/125/7
f 11/126/7 16/104/7 47/103/7 45/127/7
f 12/128/7 20/118/7 48/121/7 46/129/7
f 4/130/7 8/131/7 18/122/7 49/125/7
f 52/132/7 50/64/7 51/67/7 53/133/7
f 4/6/1 49/134/1 30/135/1 15/7/1
f 54/136/7 52/132/7 53/133/7 55/137/7
f 27/138/7 54/136/7 55/137/7 28/139/7
f 47/51/1 50/50/1 52/140/1 45/141/1
f 45/141/1 52/140/1 54/142/1 48/143/1
f 48/143/1 54/142/1 27/144/1 46/145/1
f 46/145/1 27/144/1 30/135/1 49/134/1
f 3/146/8 60/147/8 10/148/8 7/149/8
f 10/148/8 60/147/8 59/150/8 14/151/8
f 14/152/8 59/153/8 58/154/8 9/155/8
f 9/155/8 58/154/8 57/156/8 13/157/8
f 13/158/8 57/159/8 56/160/8 17/161/8
f 2/162/8 6/163/8 17/161/8 56/160/8
f 60/116/8 3/108/8 44/107/8 65/117/8
f 63/164/8 58/165/8 59/115/8 64/114/8
f 62/166/8 57/167/8 58/165/8 63/164/8
f 61/168/8 56/169/8 57/167/8 62/166/8
f 2/113/8 56/169/8 61/168/8 43/110/8
